name rise43.5482peak65.4966fall89.1036.mot
datacolumns 19
datarows 12
range 18.32825800000000 18.34659300000000
endheader
time	ground_force1_vx	ground_force1_vy	ground_force1_vz	ground_force1_px	ground_force1_py	ground_force1_pz	ground_force2_vx	ground_force2_vy	ground_force2_vz	ground_force2_px	ground_force2_py	ground_force2_pz	ground_torque1_x	ground_torque1_y	ground_torque1_z	ground_torque2_x	ground_torque2_y	ground_torque2_z	
18.32825800000000	2.83555300000000	703.39269899999999	31.36779800000000	0.19393200000000	0.00000000000000	0.08072500000000	0.00000000000000	0.00000000000000	0.00000000000000	0.00000000000000	0.00000000000000	0.00000000000000	0.00000000000000	9.92599900000000	0.00000000000000	0.00000000000000	0.00000000000000	0.00000000000000	
18.32993700000000	2.37849700000000	704.24560199999996	31.39484500000000	0.19290100000000	0.00000000000000	0.08070400000000	0.00000000000000	0.00000000000000	0.00000000000000	0.00000000000000	0.00000000000000	0.00000000000000	0.00000000000000	9.96533000000000	0.00000000000000	0.00000000000000	0.00000000000000	0.00000000000000	
18.33159400000000	1.91373500000000	705.12729800000000	31.42663000000000	0.19185300000000	0.00000000000000	0.08068400000000	0.00000000000000	0.00000000000000	0.00000000000000	0.00000000000000	0.00000000000000	0.00000000000000	0.00000000000000	10.00723500000000	0.00000000000000	0.00000000000000	0.00000000000000	0.00000000000000	
18.33326300000000	1.44140300000000	706.03654700000004	31.46307600000000	0.19078900000000	0.00000000000000	0.08066700000000	0.00000000000000	0.00000000000000	0.00000000000000	0.00000000000000	0.00000000000000	0.00000000000000	0.00000000000000	10.05169300000000	0.00000000000000	0.00000000000000	0.00000000000000	0.00000000000000	
18.33493000000000	0.96166700000000	706.97215100000005	31.50410800000000	0.18971100000000	0.00000000000000	0.08065000000000	0.00000000000000	0.00000000000000	0.00000000000000	0.00000000000000	0.00000000000000	0.00000000000000	0.00000000000000	10.09868400000000	0.00000000000000	0.00000000000000	0.00000000000000	0.00000000000000	
18.33659400000000	0.47472500000000	707.93296199999997	31.54965200000000	0.18861900000000	0.00000000000000	0.08063600000000	0.00000000000000	0.00000000000000	0.00000000000000	0.00000000000000	0.00000000000000	0.00000000000000	0.00000000000000	10.14818700000000	0.00000000000000	0.00000000000000	0.00000000000000	0.00000000000000	
18.33825900000000	-0.01919800000000	708.91787899999997	31.59963300000000	0.18751700000000	0.00000000000000	0.08062300000000	0.00000000000000	0.00000000000000	0.00000000000000	0.00000000000000	0.00000000000000	0.00000000000000	0.00000000000000	10.20018000000000	0.00000000000000	0.00000000000000	0.00000000000000	0.00000000000000	
18.33992200000000	-0.51985100000000	709.92585099999997	31.65397900000000	0.18640400000000	0.00000000000000	0.08061100000000	0.00000000000000	0.00000000000000	0.00000000000000	0.00000000000000	0.00000000000000	0.00000000000000	0.00000000000000	10.25463700000000	0.00000000000000	0.00000000000000	0.00000000000000	0.00000000000000	
18.34159500000000	-1.02695800000000	710.95587799999998	31.71261700000000	0.18528400000000	0.00000000000000	0.08060100000000	0.00000000000000	0.00000000000000	0.00000000000000	0.00000000000000	0.00000000000000	0.00000000000000	0.00000000000000	10.31153000000000	0.00000000000000	0.00000000000000	0.00000000000000	0.00000000000000	
18.34325500000000	-1.54022300000000	712.00701500000002	31.77547500000000	0.18415600000000	0.00000000000000	0.08059200000000	0.00000000000000	0.00000000000000	0.00000000000000	0.00000000000000	0.00000000000000	0.00000000000000	0.00000000000000	10.37083200000000	0.00000000000000	0.00000000000000	0.00000000000000	0.00000000000000	
18.34492900000000	-2.05932600000000	713.07836799999995	31.84247900000000	0.18302500000000	0.00000000000000	0.08058400000000	0.00000000000000	0.00000000000000	0.00000000000000	0.00000000000000	0.00000000000000	0.00000000000000	0.00000000000000	10.43251000000000	0.00000000000000	0.00000000000000	0.00000000000000	0.00000000000000	
18.34659300000000	-2.58393400000000	714.16909999999996	31.91355900000000	0.18189000000000	0.00000000000000	0.08057700000000	0.00000000000000	0.00000000000000	0.00000000000000	0.00000000000000	0.00000000000000	0.00000000000000	0.00000000000000	10.49653000000000	0.00000000000000	0.00000000000000	0.00000000000000	0.00000000000000	
